<?xml version="1.0" encoding="UTF-8" standalone="no"?>
<svg
   id="Layer_1"
   data-name="Layer 1"
   viewBox="0 0 32.871342 13.986759"
   version="1.1"
   width="32.871342"
   height="13.986758"
   xmlns="http://www.w3.org/2000/svg"
   xmlns:svg="http://www.w3.org/2000/svg">
  <defs
     id="defs1" />
  <path
     d="M 32.318677,1.4835439 32.213919,1.4394352 C 28.778973,-0.07127952 23.342605,-0.40760656 17.520286,0.88807963 l -0.242596,0.049622 A 3.1923502,3.1923502 0 0 0 14.035717,0.15477638 v 0 A 3.1923502,3.1923502 0 0 0 11.890944,2.7020402 l -0.226057,0.099244 C 6.2174926,5.2272499 2.0382155,8.7173323 0.16360562,11.970331 l -0.0551356,0.09925 a 1.0200083,1.0200083 0 0 0 -0.06064914,0.766384 1.0034676,1.0034676 0 0 0 0.74984391,0.672654 h 0.0441085 C 5.9969503,14.495541 10.766178,13.988293 17.823532,11.672599 v 0 C 24.86986,9.3624187 29.016055,6.9309395 32.583328,3.0824758 l 0.03308,-0.033082 A 1.0089812,1.0089812 0 0 0 32.82041,2.0624675 0.98141336,0.98141336 0 0 0 32.318677,1.4780303 M 5.1423487,10.851079 3.9073118,11.457571 2.9258983,11.606436 5.4235402,8.4857629 6.7357671,8.0557053 Z M 10.214822,9.158417 9.045948,9.7593948 7.9763177,9.9137745 9.5587089,7.1018597 10.832341,6.6828293 Z M 15.072267,7.59808 14.013664,8.1494358 12.806195,8.3313832 13.098412,5.9770939 14.75248,5.4257381 Z M 18.815973,6.5615311 17.641585,6.7545056 16.61055,4.8082195 18.264617,4.2568637 19.918685,5.9826074 Z m 4.962203,-1.6264998 -1.295687,0.2095153 -1.96834,-1.609959 1.268119,-0.4190304 2.949753,1.3122268 z M 28.911298,3.2478825 27.571503,3.5015063 24.62175,2.1837658 25.928463,1.7537083 29.787954,2.7847437 Z"
     id="path1"
     style="stroke-width:0.551356" />
</svg>
