<?xml version="1.0" encoding="UTF-8" standalone="no"?>
<svg
   id="Layer_1"
   data-name="Layer 1"
   viewBox="0 0 32.871342 13.986759"
   version="1.1"
   width="32.871342"
   height="13.986758"
   xmlns="http://www.w3.org/2000/svg"
   xmlns:svg="http://www.w3.org/2000/svg">
  <defs
     id="defs1" />
  <path
     d="M 32.318677,1.4835439 32.213919,1.4394352 C 28.778973,-0.07127952 23.342605,-0.40760656 17.520286,0.88807963 l -0.242596,0.049622 C 16.430101,0.0880957 15.177631,-0.21437141 14.035717,0.15477638 v 0 C 12.899498,0.53421094 12.071326,1.5177997 11.890944,2.7020402 l -0.226057,0.099244 C 6.2174926,5.2272499 2.0382155,8.7173323 0.16360562,11.970331 l -0.0551356,0.09925 c -0.11939783,0.237774 -0.14116172,0.51279 -0.06064914,0.766384 0.11114849,0.34252 0.39730806,0.599222 0.74984391,0.672654 h 0.0441085 C 5.9969503,14.495541 10.766178,13.988293 17.823532,11.672599 v 0 C 24.86986,9.3624187 29.016055,6.9309395 32.583328,3.0824758 l 0.03308,-0.033082 C 32.855597,2.7803652 32.933335,2.4042797 32.82041,2.0624675 32.739797,1.807422 32.558577,1.5963296 32.318677,1.4780303"
     id="path1"
     style="stroke-width:0.551356;fill:#00FF00" />
</svg>
