<svg fill="none" height="29" viewBox="0 0 29 29" width="29" xmlns="http://www.w3.org/2000/svg"><path d="m28.1689 2.10938v21.09372c0 1.2305-.9668 2.1094-2.1093 2.1094-1.2305 0-2.1094-.8789-2.1094-2.1094v-15.99607l-20.30274 20.30277c-.43945.4394-.9668.6152-1.49414.6152-.61523 0-1.14258-.1758-1.49414-.6152-.878907-.791-.878907-2.1094 0-2.9004l20.30272-20.39065h-15.99608c-1.23047 0-2.10937-.87891-2.10937-2.10937 0-1.142583.8789-2.10938 2.10937-2.10938h21.09378c1.1425 0 2.1093.966797 2.1093 2.10938z" fill="#000"/></svg>